<?xml version="1.0" encoding="UTF-8"?>
<svg version="1.1" xmlns="http://www.w3.org/2000/svg" width="1024" height="1024" shape-rendering="geometricPrecision">

<defs>
  <filter id="sharp">
    <feComponentTransfer>
      <feFuncR type="linear" slope="1.1"/>
      <feFuncG type="linear" slope="1.1"/>
      <feFuncB type="linear" slope="1.1"/>
    </feComponentTransfer>
  </filter>
</defs>

<g filter="url(#sharp)">
<path d="M0 0 C1.45260822 -0.00259296 2.90521573 -0.00560865 4.3578223 -0.0090034 C8.29991508 -0.0169677 12.24198955 -0.01885697 16.18408942 -0.01960087 C20.45572874 -0.02147017 24.72735897 -0.02902667 28.99899292 -0.03573608 C38.3179431 -0.04924512 47.63688893 -0.05533265 56.95584726 -0.05974674 C62.79086681 -0.06252217 68.62588473 -0.06676183 74.46090317 -0.07125092 C90.66257943 -0.08343456 106.8642544 -0.0937352 123.06593513 -0.09712601 C124.10036072 -0.09734557 125.1347863 -0.09756514 126.20055812 -0.09779136 C127.75560543 -0.09811878 127.75560543 -0.09811878 129.34206784 -0.09845281 C131.44230914 -0.09889625 133.54255045 -0.09934281 135.64279175 -0.09979248 C137.20543219 -0.10012463 137.20543219 -0.10012463 138.79964112 -0.10046348 C155.64954454 -0.10440478 172.49940454 -0.12184245 189.34929122 -0.145152 C206.70919482 -0.16897032 224.06907674 -0.18133262 241.42899692 -0.18249393 C251.1514815 -0.1834049 260.8739095 -0.1890097 270.59637833 -0.20731354 C278.88089578 -0.22285691 287.16533916 -0.22775245 295.44986846 -0.21957543 C299.66225633 -0.21571836 303.87449572 -0.2163499 308.08686447 -0.23063278 C333.52717758 -0.31187739 359.39953257 0.00069741 384.21359253 6.26544189 C385.43779907 6.564021 386.66200562 6.8626001 387.92330933 7.17022705 C416.82515586 14.50210403 442.82609039 26.85263681 464.31906128 47.67218018 C465.89567376 49.19559718 467.49190899 50.69669297 469.08859253 52.19903564 C507.66182643 89.03109687 519.57670136 142.17600856 520.93517745 193.81163073 C520.97458868 197.60333804 520.98629569 201.39400142 520.98576355 205.18591309 C520.98907404 206.63821978 520.99280203 208.09052556 520.99690503 209.54283023 C521.00679894 213.48892865 521.01062114 217.43501188 521.01329434 221.38112092 C521.0172355 225.65560168 521.02681084 229.93007083 521.0355072 234.20454407 C521.05516653 244.50630014 521.06532502 254.80805704 521.07423499 265.10982716 C521.07775179 269.00306349 521.0818975 272.89629903 521.08607465 276.7895347 C521.10453484 293.99893486 521.12027783 311.20833506 521.1279726 328.41774368 C521.12988196 332.61909231 521.13180237 336.82044094 521.13375854 341.02178955 C521.13424229 342.06579441 521.13472603 343.10979926 521.13522442 344.18544063 C521.14350466 361.05467673 521.16881179 377.92384148 521.20133922 394.7930465 C521.23458491 412.17893256 521.25243711 429.56478256 521.25561684 446.95070052 C521.25776599 456.68511754 521.26627717 466.41943054 521.29207802 476.15381622 C521.31402601 484.45286785 521.32171942 492.75179017 521.31211124 501.05086753 C521.30763479 505.26796381 521.30905133 509.48479477 521.32887268 513.7018528 C521.40377403 530.60903124 520.93066458 547.25437191 518.98890686 564.06298828 C518.90634757 564.78183823 518.82378828 565.50068819 518.73872719 566.24132147 C517.18168723 579.48019171 514.54169307 592.33829433 510.83859253 605.14044189 C510.60414429 605.96238037 510.36969604 606.78431885 510.12814331 607.63116455 C505.28446299 624.24051011 498.1510172 640.19742576 487.83859253 654.14044189 C487.06773315 655.19489502 486.29687378 656.24934814 485.50265503 657.33575439 C481.21028092 663.1093179 476.66630455 668.61877074 471.83859253 673.95294189 C471.36961548 674.47501221 470.90063843 674.99708252 470.41744995 675.53497314 C469.26796524 676.77843557 468.05801107 677.96548132 466.83859253 679.14044189 C466.17859253 679.14044189 465.51859253 679.14044189 464.83859253 679.14044189 C464.83859253 679.80044189 464.83859253 680.46044189 464.83859253 681.14044189 C461.39598784 684.40037776 457.58948816 687.24503305 453.83859253 690.14044189 C453.31426636 690.54891357 452.78994019 690.95738525 452.24972534 691.37823486 C436.99895537 703.14164337 420.07891872 711.15114361 401.83859253 717.14044189 C400.67328003 717.52844971 399.50796753 717.91645752 398.30734253 718.31622314 C381.6970229 723.43773836 364.13249702 725.80784412 346.83859253 727.14044189 C345.32082199 727.26499063 345.32082199 727.26499063 343.77238941 727.39205551 C329.08185144 728.43240758 314.36732792 728.29757576 299.64858615 728.30048466 C295.56158191 728.30235686 291.47458713 728.30991485 287.3875885 728.31661987 C278.47324051 728.3301193 269.55889706 728.33621536 260.64454055 728.34063053 C255.05822071 728.34340848 249.47190257 728.34764864 243.88558388 728.3521347 C228.36242755 728.36431875 212.83927256 728.37461824 197.31611156 728.3780098 C196.32527703 728.37822936 195.3344425 728.37844893 194.31358268 728.37867515 C193.3206146 728.37889343 192.32764652 728.3791117 191.3045885 728.3793366 C189.29305533 728.37978003 187.28152217 728.3802266 185.26998901 728.38067627 C184.27223669 728.3808977 183.27448437 728.38111913 182.24649713 728.38134727 C166.12496069 728.38528469 150.00346974 728.40271024 133.88195082 728.42603579 C117.25649457 728.44989244 100.631061 728.46221818 84.0055874 728.46337771 C74.70099264 728.46428675 65.3964571 728.46984064 56.09187889 728.48819733 C48.15962716 728.50379338 40.22745294 728.5086066 32.29518875 728.50045922 C28.26634718 728.49661959 24.23766068 728.49714213 20.20883942 728.51151657 C3.57372857 728.56729273 -12.91512448 728.14546341 -29.49909973 726.76660156 C-30.24371906 726.70562276 -30.98833838 726.64464395 -31.75552193 726.5818173 C-45.11489566 725.46280463 -58.13268607 723.31049973 -71.16140747 720.14044189 C-71.98721313 719.94724365 -72.8130188 719.75404541 -73.66384888 719.55499268 C-101.26794252 713.01317746 -127.4391016 698.5867678 -147.16140747 678.14044189 C-147.98640747 677.31544189 -148.81140747 676.49044189 -149.66140747 675.64044189 C-150.48640747 674.81544189 -151.31140747 673.99044189 -152.16140747 673.14044189 C-152.67985229 672.63939941 -153.19829712 672.13835693 -153.73245239 671.62213135 C-190.1081985 636.11284283 -200.44171131 582.41577032 -201.21896458 533.51958489 C-201.31421573 524.06523576 -201.31965809 514.61073443 -201.32145023 505.15598071 C-201.32332748 500.87973412 -201.33088718 496.60349649 -201.33758545 492.32725525 C-201.35105815 483.01300182 -201.35717508 473.69875275 -201.36159611 464.38449121 C-201.36437551 458.55232355 -201.36861559 452.72015751 -201.37310028 446.88799095 C-201.38527488 430.69039293 -201.39558006 414.49279617 -201.39897537 398.29519367 C-201.39930472 396.74605933 -201.39930472 396.74605933 -201.39964072 395.16562934 C-201.399859 394.13064979 -201.40007728 393.09567025 -201.40030217 392.02932769 C-201.40074561 389.93265808 -201.40119218 387.83598846 -201.40164185 385.73931885 C-201.40186328 384.69933682 -201.40208471 383.6593548 -201.40231284 382.58785816 C-201.40625977 365.74203694 -201.42371876 348.89625899 -201.44700137 332.05045447 C-201.47079824 314.6904119 -201.48318087 297.33039098 -201.48434329 279.97033185 C-201.48525499 270.24916699 -201.49087949 260.52805869 -201.5091629 250.80690956 C-201.52467653 242.53045044 -201.52961848 234.25406539 -201.5214248 225.97759447 C-201.51755869 221.7676927 -201.5182462 217.55793958 -201.53248215 213.34805679 C-201.68067643 166.78489778 -201.68067643 166.78489778 -196.16140747 151.14044189 C-196.19347112 149.18455903 -196.22674027 147.22860515 -196.28250122 145.27325439 C-196.1020677 142.09529618 -195.03457537 139.38049798 -193.94656372 136.40997314 C-193.19539261 134.23867755 -192.68037164 132.13986442 -192.22390747 129.89044189 C-191.17681239 124.87494445 -189.64295894 120.03799435 -188.09890747 115.15606689 C-187.38658096 112.86474996 -186.74773892 110.58982728 -186.16140747 108.26544189 C-185.19073223 105.23208178 -183.8621965 102.77432967 -182.21218872 100.06231689 C-181.05812915 97.95154623 -180.28418393 95.84227612 -179.47390747 93.57794189 C-171.1908718 72.30633277 -152.14475298 51.59120032 -134.16140747 38.14044189 C-133.62934692 37.73873779 -133.09728638 37.33703369 -132.54910278 36.92315674 C-120.54326786 27.90665694 -108.1834621 20.6442442 -94.16140747 15.14044189 C-93.06957153 14.65317627 -91.9777356 14.16591064 -90.85281372 13.66387939 C-86.79907446 11.99090764 -82.75984941 10.73615099 -78.53640747 9.57794189 C-77.74951538 9.36033203 -76.96262329 9.14272217 -76.15188599 8.91851807 C-70.46099142 7.3888695 -64.80331357 6.31285664 -58.95828247 5.53497314 C-56.53124161 5.19261124 -54.2258173 4.7257336 -51.84890747 4.14044189 C-35.0065403 0.23719257 -17.20475168 -0.01137702 0 0 Z " fill="#64D59A" transform="translate(352.1614074707031,147.85955810546875)"/>
<path d="M0 0 C1.75376953 0.86431641 1.75376953 0.86431641 3.54296875 1.74609375 C41.65817613 21.46399673 72.42295652 57.20673868 86.13110352 97.92456055 C91.3774088 114.458183 94.23005693 131.23016037 94.25 148.5625 C94.25133942 149.24852295 94.25267883 149.9345459 94.25405884 150.64135742 C94.2492002 162.16402812 93.41990054 173.36621684 91.40136719 184.72216797 C91.03711581 186.78936101 90.72271791 188.8651842 90.4140625 190.94140625 C85.36983621 221.30502812 68.04134478 248.33850722 48 271 C47.52884766 271.53431641 47.05769531 272.06863281 46.57226562 272.61914062 C41.06043045 278.83781414 35.43795801 284.72258471 29 290 C28.22785156 290.66 27.45570313 291.32 26.66015625 292 C-6.80967725 320.18512295 -46.59408613 337.8965379 -88 351 C-88.68594238 351.22107422 -89.37188477 351.44214844 -90.07861328 351.66992188 C-115.22413364 359.72753309 -141.30661572 364.36844 -167.2805481 368.81936646 C-170.92766236 369.44750737 -174.5646689 370.10147139 -178.19238281 370.83398438 C-179.21339584 371.03716278 -179.21339584 371.03716278 -180.2550354 371.2444458 C-182.06821641 371.60880529 -183.879199 371.98406025 -185.68994141 372.36035156 C-192.07980495 373.3086603 -198.55445882 373.57029725 -205 374 C-205 355.19 -205 336.38 -205 317 C-196.56094415 314.74958511 -188.18581467 312.52058228 -179.6875 310.5625 C-170.97388785 308.51149928 -162.33629263 306.28710938 -153.73925781 303.79248047 C-151.72719795 303.21038187 -149.71324154 302.63482853 -147.69824219 302.06298828 C-90.07009994 285.66568638 -30.93800551 258.91633577 0.3125 204.9375 C4.05879289 198.15118255 7.16272559 191.21325878 10 184 C10.31839844 183.21238281 10.63679688 182.42476562 10.96484375 181.61328125 C19.19857147 159.45185489 17.01400516 131.04373259 7.3359375 109.72265625 C6.89507813 108.82417969 6.45421875 107.92570312 6 107 C5.55914063 106.09121094 5.11828125 105.18242187 4.6640625 104.24609375 C-7.32729391 80.9590121 -28.14477529 64.9662546 -52.7421875 56.75 C-56.14695804 55.75419614 -59.55504995 54.84522938 -63 54 C-63.84433594 53.78601563 -64.68867187 53.57203125 -65.55859375 53.3515625 C-85.64088928 48.54851781 -112.36259799 48.12019657 -131 58 C-133.19005267 59.91447162 -135.05473848 62.03737036 -136.9375 64.25 C-137.98684763 65.42822343 -139.03892155 66.6040246 -140.09375 67.77734375 C-140.59519531 68.3379248 -141.09664062 68.89850586 -141.61328125 69.47607422 C-159.25857019 88.86725267 -186.86028827 97.733309 -212 102 C-212.92570801 102.17853516 -213.85141602 102.35707031 -214.80517578 102.54101562 C-218.06650342 103.00955421 -221.02749598 103.02045867 -224.31640625 102.88671875 C-225.49267578 102.85642578 -226.66894531 102.82613281 -227.88085938 102.79492188 C-230.33983531 102.72317457 -232.7983184 102.63195026 -235.25585938 102.52148438 C-241.32188878 102.15092804 -241.32188878 102.15092804 -246.79223633 104.23266602 C-248.27306149 105.99656964 -248.27306149 105.99656964 -250 109 C-267.20124004 123.81631941 -289.39696408 125.24122497 -311 125 C-311 124.67 -311 124.34 -311 124 C-310.13761719 123.9484375 -309.27523438 123.896875 -308.38671875 123.84375 C-292.2703801 122.34613881 -273.61738553 115.57566143 -262.4375 103.4375 C-260.14017215 100.44360627 -258.49731261 97.81273003 -258 94 C-259.65674336 91.55139853 -259.65674336 91.55139853 -262 89 C-265.60273319 82.93096624 -267.43789513 77.01340688 -266 70 C-262.52658959 60.88098596 -257.4513713 53.28341731 -251 46 C-250.30003906 45.18015625 -249.60007812 44.3603125 -248.87890625 43.515625 C-234.6287244 27.15712748 -217.88288324 15.31493554 -199 5 C-197.35644531 4.10087891 -197.35644531 4.10087891 -195.6796875 3.18359375 C-136.91773195 -27.47829859 -59.27024023 -29.24274905 0 0 Z " fill="#F9FAFA" transform="translate(681,250)"/>
<path d="M0 0 C5.94 0 11.88 0 18 0 C18 36.63 18 73.26 18 111 C22.29 111.33 26.58 111.66 31 112 C33.32315296 112.29890248 35.64298555 112.62879414 37.953125 113.015625 C39.13712891 113.2122876 40.32113281 113.4089502 41.54101562 113.61157227 C43.37696289 113.92759399 43.37696289 113.92759399 45.25 114.25 C46.54615234 114.47034912 47.84230469 114.69069824 49.17773438 114.91772461 C84.21577333 120.92279799 84.21577333 120.92279799 100 126 C100.77762695 126.23944336 101.55525391 126.47888672 102.35644531 126.72558594 C127.28117622 134.40702885 151.29591827 144.81286494 164.3359375 168.6328125 C169.28322554 178.6435221 169.74790609 189.57298283 166.35839844 200.17602539 C159.25373128 219.66182854 143.17563238 233.41570544 124.74121094 242.05908203 C114.88985239 246.42628495 104.71948546 249.86391125 94.4375 253.0625 C93.44363281 253.37396973 92.44976563 253.68543945 91.42578125 254.00634766 C90.50023437 254.28397949 89.5746875 254.56161133 88.62109375 254.84765625 C87.8005249 255.09523682 86.97995605 255.34281738 86.13452148 255.59790039 C84 256 84 256 81 255 C81.74121094 254.75507812 82.48242188 254.51015625 83.24609375 254.2578125 C103.71333685 246.99281801 124.67961379 233.5185844 135.5 214.1875 C138.78292345 207.10897738 139.43483563 200.77595288 137.1796875 193.26953125 C132.82717717 183.21005808 123.72589352 178.13577715 114 174 C111.02639792 172.90144374 108.0385467 171.90275663 105 171 C105 170.34 105 169.68 105 169 C103.96875 169.04125 102.9375 169.0825 101.875 169.125 C98 169 98 169 95.18359375 168.0546875 C91.81758801 166.93956903 88.7043283 166.43427207 85.1875 166 C83.88941406 165.83628906 82.59132813 165.67257812 81.25390625 165.50390625 C78.2631243 165.14473126 75.27064455 164.80233275 72.27734375 164.46484375 C71.50173096 164.37654297 70.72611816 164.28824219 69.92700195 164.19726562 C68.40912378 164.02598316 66.89072883 163.85921169 65.37182617 163.69726562 C60.11009296 163.11009296 60.11009296 163.11009296 59 162 C56.21705582 161.70920203 53.45026731 161.47635092 50.66015625 161.28125 C49.82286484 161.21844849 48.98557343 161.15564697 48.12290955 161.09094238 C45.43640731 160.88961933 42.74952787 160.69417366 40.0625 160.5 C36.53217639 160.24438526 33.00232817 159.98319287 29.47265625 159.71875 C28.65491226 159.661427 27.83716827 159.604104 26.99464417 159.54504395 C21.225415 159.1127075 21.225415 159.1127075 19 158 C20.47743142 170.75256595 23.35575002 179.19783445 33 188 C45.10638179 196.94740132 59.92207351 201.07646235 74.609375 203.26171875 C79.56971792 204.34179342 82.17950335 205.76925503 85 210 C85.55255156 216.18857744 85.55255156 216.18857744 83.84580231 218.69494057 C81.23314085 220.54220149 79.34006874 220.3775603 76.15466309 220.38095093 C74.93482224 220.3894104 73.71498138 220.39786987 72.45817566 220.40658569 C71.10427723 220.40075263 69.75038012 220.39460811 68.39648438 220.38818359 C66.97235206 220.39224815 65.5482229 220.39758937 64.12409973 220.40411377 C60.25428622 220.41780718 56.38471226 220.41248048 52.51489449 220.40297651 C48.46837841 220.39539035 44.42188308 220.40242262 40.37536621 220.40713501 C33.57947094 220.41259562 26.78367341 220.40539298 19.98779297 220.39111328 C12.12664313 220.37478614 4.26572669 220.38007443 -3.5954175 220.3965925 C-10.34028769 220.41019871 -17.08508754 220.41213128 -23.82996702 220.40427649 C-27.86038254 220.39959519 -31.8906883 220.39898759 -35.9210968 220.40888596 C-39.70995848 220.41754083 -43.49851874 220.41156112 -47.28734779 220.39420319 C-48.67933463 220.39023038 -50.07134676 220.39138596 -51.46332359 220.39799118 C-53.36042765 220.40616456 -55.25758704 220.39410696 -57.15466309 220.38095093 C-58.74859013 220.37925431 -58.74859013 220.37925431 -60.37471771 220.37752342 C-63 220 -63 220 -64.83798981 218.68712807 C-66.82864557 215.79688559 -66.40888366 213.38789319 -66 210 C-64.75 207.25 -64.75 207.25 -62 205 C-58.08253725 203.6275994 -54.0607128 202.83642589 -50 202 C-34.31907913 198.69703231 -17.59379678 193.8563442 -7 181 C-3.02397962 174.62353841 -0.95687195 168.80629526 -0.4375 161.3125 C-0.35371094 160.13300781 -0.26992188 158.95351563 -0.18359375 157.73828125 C-0.12300781 156.83464844 -0.06242187 155.93101562 0 155 C-0.72920654 155.02392822 -1.45841309 155.04785645 -2.2097168 155.07250977 C-9.67312194 155.21042246 -16.51959838 154.47790713 -23.8125 152.9375 C-24.88709473 152.71416992 -25.96168945 152.49083984 -27.06884766 152.26074219 C-49.52521207 147.42540372 -71.94841018 140.73666151 -90 126 C-91.051875 125.236875 -92.10375 124.47375 -93.1875 123.6875 C-103.33105817 113.99476664 -108.98225691 102.80437818 -109.3125 88.8125 C-109.16588165 75.91008486 -103.00700875 66.15226039 -94.375 56.9375 C-76.41693002 39.92995168 -52.10609932 30.55310653 -29 23 C-28.2481543 22.7525 -27.49630859 22.505 -26.72167969 22.25 C-21.49611445 20.54452169 -16.39359092 19.07871818 -11 18 C-11 35.82 -11 53.64 -11 72 C-16.61 73.65 -22.22 75.3 -28 77 C-31.89792839 79.12165722 -34.89558434 80.89558434 -38 84 C-38.75244501 86.8275989 -38.75244501 86.8275989 -38 90 C-29.80547282 100.7722758 -12.40124657 103.51975069 0 106 C0 71.02 0 36.04 0 0 Z " fill="#FCFDFC" transform="translate(446,557)"/>
<path d="M0 0 C100.65 0 201.3 0 305 0 C302.74511523 9.01953908 302.74511523 9.01953908 301.15234375 12.078125 C300.79914063 12.7580249 300.4459375 13.4379248 300.08203125 14.13842773 C299.51548828 15.18365601 299.51548828 15.18365601 298.9375 16.25 C298.54046875 16.98871338 298.1434375 17.72742676 297.734375 18.48852539 C291.88815975 29.11014872 284.31883032 38.21289116 276 47 C275.18015625 47.88429688 274.3603125 48.76859375 273.515625 49.6796875 C266.35510414 57.15798295 258.58868525 63.25173372 250 69 C249.36384766 69.42667969 248.72769531 69.85335937 248.07226562 70.29296875 C226.18446378 84.67827835 200.62751262 92.61330865 175 97 C181.27 97 187.54 97 194 97 C194 97.33 194 97.66 194 98 C168.53780369 100.92789116 168.53780369 100.92789116 160 99 C158.80221867 99.97861111 158.80221867 99.97861111 158.87695217 101.80972385 C158.87833486 103.00298487 158.87833486 103.00298487 158.87974548 104.22035217 C158.87837082 105.13045547 158.87699615 106.04055878 158.87557983 106.97824097 C158.87917511 107.98452545 158.88277039 108.99080994 158.88647461 110.02758789 C158.88625557 111.60788536 158.88625557 111.60788536 158.8860321 113.22010803 C158.88673174 116.720978 158.89452652 120.22179552 158.90234375 123.72265625 C158.90420775 126.14261343 158.90563174 128.56257099 158.90663147 130.98252869 C158.91045808 137.36615024 158.92028959 143.74974921 158.93133545 150.13336182 C158.94154649 156.64163914 158.94612843 163.1499201 158.95117188 169.65820312 C158.96191173 182.43881175 158.97879888 195.21940467 159 208 C158.34 208 157.68 208 157 208 C157 171.7 157 135.4 157 98 C150.73 98 144.46 98 138 98 C138 132.98 138 167.96 138 204 C137.34 203.67 136.68 203.34 136 203 C136.33 168.35 136.66 133.7 137 98 C134.525 98.495 134.525 98.495 132 99 C132 98.34 132 97.68 132 97 C131.30519531 96.99742187 130.61039063 96.99484375 129.89453125 96.9921875 C95.11090312 95.66961609 57.83692277 75.3497101 33.40478516 51.37402344 C32.12329323 50.12059338 30.81863345 48.89096202 29.51171875 47.6640625 C17.06746384 35.75712429 5.84468969 19.32988676 0 3 C0 2.01 0 1.02 0 0 Z " fill="#68CB60" transform="translate(308,459)"/>
<path d="M0 0 C121.11 0 242.22 0 367 0 C365.66828759 8.65613065 364.3844387 16.04714722 361.5 24.125 C360.97768799 25.59815674 360.97768799 25.59815674 360.44482422 27.10107422 C353.18266776 46.90492052 342.42613056 62.70036062 328 78 C327.08541016 78.99386719 327.08541016 78.99386719 326.15234375 80.0078125 C316.54539153 90.08389402 305.04636644 98.12648503 293 105 C291.86304688 105.65613281 290.72609375 106.31226563 289.5546875 106.98828125 C282.53775018 110.93704524 275.34294833 114.24275351 267.875 117.25 C267.08859131 117.56710937 266.30218262 117.88421875 265.49194336 118.2109375 C253.957212 122.72664193 242.4105639 125.76189242 230.1875 127.75 C229.53545593 127.85839203 228.88341187 127.96678406 228.21160889 128.07846069 C218.38845219 129.69899402 208.94545486 130.71492886 199 130 C199 129.67 199 129.34 199 129 C199.5762915 128.91548584 200.15258301 128.83097168 200.74633789 128.74389648 C239.47363601 122.91361114 274.29688533 109.13160759 303 82 C303.81082031 81.25363281 304.62164063 80.50726563 305.45703125 79.73828125 C319.15997133 66.68272417 330.00974011 49.97077967 336 32 C235.35 32 134.7 32 31 32 C38.91352294 50.99245506 48.88252161 66.19639968 63 81 C63.67933594 81.7321875 64.35867188 82.464375 65.05859375 83.21875 C89.24275373 108.55932511 127.76702533 124.79933879 162 129 C162 129.33 162 129.66 162 130 C118.76973294 130.94600882 74.746195 112.01753505 43.38671875 82.67578125 C23.49535808 63.52304156 9.17751114 40.78344946 2 14 C1.77570313 13.22011719 1.55140625 12.44023437 1.3203125 11.63671875 C0.1782733 7.48313782 0 4.43993265 0 0 Z " fill="#FAFDFB" transform="translate(277,427)"/>
<path d="M0 0 C2.30532868 2.96300503 4.253695 6.03464727 6.1875 9.25 C20.77868567 32.07521576 49.27824338 40.77539237 74.3828125 46.6484375 C76.58557655 47.11323929 78.79185919 47.56145199 81 48 C81.7228418 48.14474762 82.44568359 48.28949524 83.19042969 48.43862915 C103.44260798 52.41940444 123.95609487 54.30606388 144.46484375 56.42456055 C226.04436271 64.87691709 226.04436271 64.87691709 244.10546875 86.5234375 C249.33927248 93.7104752 252.05943499 100.02690667 251 109 C249.44728802 113.06662662 248.63720598 114.57519602 245 117 C244.88785156 115.74896484 244.88785156 115.74896484 244.7734375 114.47265625 C243.71212147 105.38903963 241.7329186 99.36400289 234.9453125 93.10546875 C227.79769711 87.5823114 219.45902675 84.86515422 211 82 C211 81.34 211 80.68 211 80 C209.96875 80.04125 208.9375 80.0825 207.875 80.125 C204 80 204 80 201.18359375 79.0546875 C197.81758801 77.93956903 194.7043283 77.43427207 191.1875 77 C189.88941406 76.83628906 188.59132813 76.67257812 187.25390625 76.50390625 C184.2631243 76.14473126 181.27064455 75.80233275 178.27734375 75.46484375 C177.50173096 75.37654297 176.72611816 75.28824219 175.92700195 75.19726562 C174.40912378 75.02598316 172.89072883 74.85921169 171.37182617 74.69726562 C166.11009296 74.11009296 166.11009296 74.11009296 165 73 C162.21705582 72.70920203 159.45026731 72.47635092 156.66015625 72.28125 C155.82286484 72.21844849 154.98557343 72.15564697 154.12290955 72.09094238 C151.43640731 71.88961933 148.74952787 71.69417366 146.0625 71.5 C142.53217639 71.24438526 139.00232817 70.98319287 135.47265625 70.71875 C134.65491226 70.661427 133.83716827 70.604104 132.99464417 70.54504395 C127.225415 70.1127075 127.225415 70.1127075 125 69 C126.47743142 81.75256595 129.35575002 90.19783445 139 99 C151.10638179 107.94740132 165.92207351 112.07646235 180.609375 114.26171875 C185.56971792 115.34179342 188.17950335 116.76925503 191 121 C191.55255156 127.18857744 191.55255156 127.18857744 189.84580231 129.69494057 C187.23314085 131.54220149 185.34006874 131.3775603 182.15466309 131.38095093 C180.93482224 131.3894104 179.71498138 131.39786987 178.45817566 131.40658569 C177.10427723 131.40075263 175.75038012 131.39460811 174.39648438 131.38818359 C172.97235206 131.39224815 171.5482229 131.39758937 170.12409973 131.40411377 C166.25428622 131.41780718 162.38471226 131.41248048 158.51489449 131.40297651 C154.46837841 131.39539035 150.42188308 131.40242262 146.37536621 131.40713501 C139.57947094 131.41259562 132.78367341 131.40539298 125.98779297 131.39111328 C118.12664313 131.37478614 110.26572669 131.38007443 102.4045825 131.3965925 C95.65971231 131.41019871 88.91491246 131.41213128 82.17003298 131.40427649 C78.13961746 131.39959519 74.1093117 131.39898759 70.0789032 131.40888596 C66.29004152 131.41754083 62.50148126 131.41156112 58.71265221 131.39420319 C57.32066537 131.39023038 55.92865324 131.39138596 54.53667641 131.39799118 C52.63957235 131.40616456 50.74241296 131.39410696 48.84533691 131.38095093 C47.25140987 131.37925431 47.25140987 131.37925431 45.62528229 131.37752342 C43 131 43 131 41.16201019 129.68712807 C39.17135443 126.79688559 39.59111634 124.38789319 40 121 C41.25 118.25 41.25 118.25 44 116 C47.91746275 114.6275994 51.9392872 113.83642589 56 113 C71.68092087 109.69703231 88.40620322 104.8563442 99 92 C102.97602038 85.62353841 105.04312805 79.80629526 105.5625 72.3125 C105.68818359 70.54326172 105.68818359 70.54326172 105.81640625 68.73828125 C105.87699219 67.83464844 105.93757813 66.93101562 106 66 C105.27079346 66.02392822 104.54158691 66.04785645 103.7902832 66.07250977 C96.32687806 66.21042246 89.48040162 65.47790713 82.1875 63.9375 C81.11290527 63.71416992 80.03831055 63.49083984 78.93115234 63.26074219 C56.47478793 58.42540372 34.05158982 51.73666151 16 37 C14.948125 36.236875 13.89625 35.47375 12.8125 34.6875 C6.96865814 29.10338445 2.25449834 22.81022638 0 15 C0.33 14.67 0.66 14.34 1 14 C1.19130096 9.21747591 0.77026643 4.71788188 0 0 Z " fill="#F1F2F2" transform="translate(340,646)"/>
<path d="M0 0 C6.6 0 13.2 0 20 0 C17.74511523 9.01953908 17.74511523 9.01953908 16.15234375 12.078125 C15.79914063 12.7580249 15.4459375 13.4379248 15.08203125 14.13842773 C14.51548828 15.18365601 14.51548828 15.18365601 13.9375 16.25 C13.54046875 16.98871338 13.1434375 17.72742676 12.734375 18.48852539 C6.88815975 29.11014872 -0.68116968 38.21289116 -9 47 C-9.81984375 47.88429688 -10.6396875 48.76859375 -11.484375 49.6796875 C-18.64489586 57.15798295 -26.41131475 63.25173372 -35 69 C-35.63615234 69.42667969 -36.27230469 69.85335937 -36.92773438 70.29296875 C-58.81553622 84.67827835 -84.37248738 92.61330865 -110 97 C-103.73 97 -97.46 97 -91 97 C-91 97.33 -91 97.66 -91 98 C-116.46219631 100.92789116 -116.46219631 100.92789116 -125 99 C-126.19778133 99.97861111 -126.19778133 99.97861111 -126.12304783 101.80972385 C-126.12166514 103.00298487 -126.12166514 103.00298487 -126.12025452 104.22035217 C-126.12162918 105.13045547 -126.12300385 106.04055878 -126.12442017 106.97824097 C-126.12082489 107.98452545 -126.11722961 108.99080994 -126.11352539 110.02758789 C-126.11374443 111.60788536 -126.11374443 111.60788536 -126.1139679 113.22010803 C-126.11326826 116.720978 -126.10547348 120.22179552 -126.09765625 123.72265625 C-126.09579225 126.14261343 -126.09436826 128.56257099 -126.09336853 130.98252869 C-126.08954192 137.36615024 -126.07971041 143.74974921 -126.06866455 150.13336182 C-126.05845351 156.64163914 -126.05387157 163.1499201 -126.04882812 169.65820312 C-126.03808827 182.43881175 -126.02120112 195.21940467 -126 208 C-126.66 208 -127.32 208 -128 208 C-128 171.7 -128 135.4 -128 98 C-134.27 98 -140.54 98 -147 98 C-147 132.98 -147 167.96 -147 204 C-147.66 203.67 -148.32 203.34 -149 203 C-148.67 168.35 -148.34 133.7 -148 98 C-150.475 98.495 -150.475 98.495 -153 99 C-153 98.34 -153 97.68 -153 97 C-153.69480469 96.99742187 -154.38960937 96.99484375 -155.10546875 96.9921875 C-189.88909688 95.66961609 -227.16307723 75.3497101 -251.59521484 51.37402344 C-252.87670677 50.12059338 -254.18136655 48.89096202 -255.48828125 47.6640625 C-267.63506933 36.04174714 -279.94441281 19.89353378 -283 3 C-279.29583874 0.62409858 -276.07015427 0.79499714 -271.75 0.875 C-270.48671875 0.89304687 -269.2234375 0.91109375 -267.921875 0.9296875 C-266.95765625 0.95289063 -265.9934375 0.97609375 -265 1 C-264.72027344 1.72703125 -264.44054687 2.4540625 -264.15234375 3.203125 C-259.40926069 15.09896032 -253.3172358 25.27251998 -245 35 C-244.36191406 35.77214844 -243.72382813 36.54429687 -243.06640625 37.33984375 C-222.0407135 62.08839558 -185.87592837 77.28021089 -154 80 C-134.96858679 81.07532583 -115.71432753 80.8201837 -97 77 C-96.27973633 76.86609863 -95.55947266 76.73219727 -94.81738281 76.59423828 C-71.52270463 72.23639032 -48.71979382 61.78268374 -31 46 C-29.96875 45.21625 -28.9375 44.4325 -27.875 43.625 C-14.90270952 31.78073478 -6.43779032 16.0944758 0 0 Z " fill="#3FB55E" transform="translate(593,459)"/>
<path d="M0 0 C29.90036643 -0.61988565 58.59243337 10.29481471 80.47216797 30.63818359 C93.6245742 43.27464602 102.76086611 59.35916379 107.015625 77.12109375 C107.45841797 78.72404297 107.45841797 78.72404297 107.91015625 80.359375 C112.86459773 99.97353375 110.95811331 123.79989819 102.015625 142.12109375 C101.025625 142.78109375 100.035625 143.44109375 99.015625 144.12109375 C99.0878125 143.46109375 99.16 142.80109375 99.234375 142.12109375 C101.34908709 119.56416476 101.17015264 97.81613984 91.015625 77.12109375 C90.57476563 76.21230469 90.13390625 75.30351562 89.6796875 74.3671875 C77.68833109 51.08010585 56.87084971 35.08734835 32.2734375 26.87109375 C28.86866696 25.87528989 25.46057505 24.96632313 22.015625 24.12109375 C21.17128906 23.90710938 20.32695313 23.693125 19.45703125 23.47265625 C0.83461074 19.01876712 -18.52583811 20.24663805 -36.98486328 24.66357422 C-39.63335836 25.26959128 -42.29904646 25.71292381 -44.984375 26.12109375 C-40.21107733 15.98069105 -32.18501313 8.33998366 -21.9609375 3.76953125 C-14.62308047 1.14752064 -7.72555972 0.31347166 0 0 Z " fill="#E4E5E5" transform="translate(595.984375,279.87890625)"/>
<path d="M0 0 C0.31640625 2.14453125 0.31640625 2.14453125 0 5 C-1.62979825 7.14574927 -3.13520483 8.84709603 -5.0625 10.6875 C-5.59907227 11.20860352 -6.13564453 11.72970703 -6.68847656 12.26660156 C-25.9846608 30.41407191 -51.28882606 39.63632091 -77 44 C-77.93255615 44.17345947 -78.8651123 44.34691895 -79.82592773 44.52563477 C-82.93137127 44.98974343 -85.84712616 45.12928524 -88.984375 45.1328125 C-90.63373047 45.13474609 -90.63373047 45.13474609 -92.31640625 45.13671875 C-93.44949219 45.13285156 -94.58257812 45.12898438 -95.75 45.125 C-96.89855469 45.12886719 -98.04710937 45.13273437 -99.23046875 45.13671875 C-100.32488281 45.13542969 -101.41929687 45.13414062 -102.546875 45.1328125 C-103.54557617 45.13168457 -104.54427734 45.13055664 -105.57324219 45.12939453 C-108 45 -108 45 -110 44 C-109.25 38.25 -109.25 38.25 -107 36 C-104.33642578 35.48510742 -104.33642578 35.48510742 -100.9453125 35.10546875 C-99.70072266 34.95754883 -98.45613281 34.80962891 -97.17382812 34.65722656 C-96.51326416 34.58121216 -95.8527002 34.50519775 -95.17211914 34.42687988 C-63.18006087 30.68588845 -29.67048501 21.3322113 -3.765625 1.26953125 C-2 0 -2 0 0 0 Z " fill="#E4E5E4" transform="translate(546,308)"/>
<path d="M0 0 C-0.70774033 15.08219045 -0.70774033 15.08219045 -7.125 21.1875 C-16.11102274 28.26120799 -26.12993013 27.33695969 -37 27 C-33.09033484 14.1996059 -25.92704931 7.46797325 -14.5625 1.0625 C-9.66797235 -0.3972714 -5.06837526 -0.24746136 0 0 Z " fill="#26A353" transform="translate(488,286)"/>
<path d="M0 0 C0.66 0 1.32 0 2 0 C2 17.82 2 35.64 2 54 C-3.61 55.65 -9.22 57.3 -15 59 C-20.54432965 62.01779968 -24.33273916 64.28444106 -27 70 C-29.78401696 65.14494604 -30.0758179 60.45277564 -29 55 C-23.56278131 45.70320121 -15.1058919 42.45208229 -5.296875 39.515625 C-3 39 -3 39 1 39 C0.505 19.695 0.505 19.695 0 0 Z " fill="#E1E5E3" transform="translate(433,575)"/>
<path d="M0 0 C-0.4102437 8.7424347 -0.74351169 15.18270246 -7.4375 21.375 C-10.37109556 23.9345129 -10.80155153 24 -15 24 C-15.06058594 23.16855469 -15.12117188 22.33710938 -15.18359375 21.48046875 C-15.26738281 20.39378906 -15.35117187 19.30710937 -15.4375 18.1875 C-15.51871094 17.10855469 -15.59992188 16.02960938 -15.68359375 14.91796875 C-15.90212461 11.94010095 -15.90212461 11.94010095 -17 9 C-19.00016466 7.79117904 -19.00016466 7.79117904 -21 7 C-20 4 -20 4 -18.3203125 2.83203125 C-12.08798337 -0.06234224 -6.81813551 -0.45879043 0 0 Z " fill="#0D9360" transform="translate(488,286)"/>
<path d="M0 0 C53.79 0 107.58 0 163 0 C163 0.33 163 0.66 163 1 C151.40802502 1.13347665 139.81602019 1.26398032 128.22397423 1.39115143 C122.83549791 1.45034954 117.44703456 1.51040104 112.05859375 1.57275391 C106.84222773 1.63302258 101.62584269 1.691186 96.40943146 1.74740601 C94.3180524 1.7699764 92.22667761 1.79294624 90.13530731 1.8163147 C78.30839853 1.94624696 66.48482622 2.01442646 54.65722656 1.9609375 C53.58276339 1.9569268 52.50830021 1.95291611 51.40127754 1.94878387 C46.25715975 1.92887976 41.11349883 1.89859639 35.96957397 1.84973145 C34.14199004 1.84019984 32.31440421 1.83102393 30.48681641 1.82226562 C29.65099659 1.81035187 28.81517677 1.79843811 27.95402908 1.78616333 C25.96807837 1.78161206 23.98238764 1.88100338 22 2 C21.34 2.66 20.68 3.32 20 4 C20 3.01 20 2.02 20 1 C12.08 1.495 12.08 1.495 4 2 C2.7922442 5.62326739 3.45688872 6.64146369 5 10 C4.34 10 3.68 10 3 10 C0 3.375 0 3.375 0 0 Z " fill="#A1DD6F" transform="translate(308,459)"/>
<path d="M0 0 C0.77403168 0.00141495 1.54806335 0.0028299 2.34555054 0.00428772 C4.82155192 0.00989222 7.29746338 0.02244542 9.7734375 0.03515625 C11.45051953 0.04017067 13.12760297 0.04473368 14.8046875 0.04882812 C18.91930556 0.0598631 23.03385628 0.07713071 27.1484375 0.09765625 C27.1484375 0.42765625 27.1484375 0.75765625 27.1484375 1.09765625 C1.68624119 4.02554741 1.68624119 4.02554741 -6.8515625 2.09765625 C-8.04934383 3.07626736 -8.04934383 3.07626736 -7.97461033 4.9073801 C-7.97368854 5.70288745 -7.97276674 6.49839479 -7.97181702 7.31800842 C-7.97319168 8.22811172 -7.97456635 9.13821503 -7.97598267 10.07589722 C-7.97058975 11.58532394 -7.97058975 11.58532394 -7.96508789 13.12524414 C-7.96523392 14.17877579 -7.96537994 15.23230743 -7.9655304 16.31776428 C-7.96483076 19.81863425 -7.95703598 23.31945177 -7.94921875 26.8203125 C-7.94735475 29.24026968 -7.94593076 31.66022724 -7.94493103 34.08018494 C-7.94110442 40.46380649 -7.93127291 46.84740546 -7.92022705 53.23101807 C-7.91001601 59.73929539 -7.90543407 66.24757635 -7.90039062 72.75585938 C-7.88965077 85.536468 -7.87276362 98.31706092 -7.8515625 111.09765625 C-8.5115625 111.09765625 -9.1715625 111.09765625 -9.8515625 111.09765625 C-9.8515625 74.79765625 -9.8515625 38.49765625 -9.8515625 1.09765625 C-6.73202122 -0.46211439 -3.42196866 -0.02338501 0 0 Z " fill="#2DB587" transform="translate(474.8515625,555.90234375)"/>
<path d="M0 0 C-2.31494406 4.68197914 -2.31494406 4.68197914 -5.34082031 6.08666992 C-6.69578613 6.40535034 -6.69578613 6.40535034 -8.078125 6.73046875 C-9.57279297 7.09881836 -9.57279297 7.09881836 -11.09765625 7.47460938 C-12.13792969 7.70986328 -13.17820312 7.94511719 -14.25 8.1875 C-16.2969746 8.68057627 -18.34385199 9.17405634 -20.390625 9.66796875 C-21.35863037 9.89355469 -22.32663574 10.11914062 -23.32397461 10.3515625 C-25.60339349 10.90389683 -27.83795694 11.52052596 -30.08203125 12.19921875 C-32.95563664 12.98782532 -34.27122932 13.09150827 -37 12 C-33.535 11.505 -33.535 11.505 -30 11 C-30 10.34 -30 9.68 -30 9 C-31.98 9 -33.96 9 -36 9 C-35.67 8.34 -35.34 7.68 -35 7 C-32.99389648 6.45336914 -32.99389648 6.45336914 -30.37109375 6.03515625 C-29.41783203 5.87466797 -28.46457031 5.71417969 -27.48242188 5.54882812 C-26.47759766 5.38833984 -25.47277344 5.22785156 -24.4375 5.0625 C-16.74266938 3.82990683 -7.53632514 -0.70653048 0 0 Z " fill="#31B492" transform="translate(540,547)"/>
<path d="M0 0 C0.66 0 1.32 0 2 0 C2.2018339 4.33942883 1.59723333 7.02082985 0 11 C-0.50724286 12.92304122 -1.01261073 14.84666658 -1.49682617 16.77563477 C-3.58794805 24.99842778 -6.34653385 32.76312058 -9.6875 40.5625 C-10.27640015 41.94598633 -10.27640015 41.94598633 -10.87719727 43.35742188 C-13.73564753 49.86782376 -13.73564753 49.86782376 -16 51 C-15.34499236 46.78585446 -13.92048438 43.26214976 -12.1875 39.375 C-11.64017777 38.11534197 -11.09461703 36.85491717 -10.55078125 35.59375 C-10.03902344 34.4078125 -9.52726563 33.221875 -9 32 C-5.59063462 24.08747967 -3.86865192 16.07944253 -2.30615234 7.64013672 C-2.14969238 6.79725098 -1.99323242 5.95436523 -1.83203125 5.0859375 C-1.62670776 3.9419751 -1.62670776 3.9419751 -1.41723633 2.77490234 C-1 1 -1 1 0 0 Z " fill="#3FB99E" transform="translate(773,431)"/>
<path d="M0 0 C0.66 0 1.32 0 2 0 C2.05790353 3.29159316 2.09356261 6.58305603 2.125 9.875 C2.14175781 10.81214844 2.15851563 11.74929688 2.17578125 12.71484375 C2.18222656 13.61074219 2.18867188 14.50664063 2.1953125 15.4296875 C2.20578613 16.25710449 2.21625977 17.08452148 2.22705078 17.93701172 C2 20 2 20 0 22 C-2.35292665 22.66603239 -4.68378792 23.25793944 -7.0625 23.8125 C-14.11023728 25.56368953 -20.74810347 27.74810347 -26 33 C-25.67801034 36.09926819 -25.67801034 36.09926819 -25 39 C-25.99 38.67 -26.98 38.34 -28 38 C-28.4375 35.375 -28.4375 35.375 -28 32 C-23.62177324 26.04561161 -16.7251278 24.18219486 -10 22 C-9.16726563 21.63390625 -8.33453125 21.2678125 -7.4765625 20.890625 C-5 20 -5 20 0 20 C0 13.4 0 6.8 0 0 Z " fill="#3AB796" transform="translate(435,609)"/>
<path d="M0 0 C4.42846345 3.98058036 5.75937027 9.05415404 6.23583984 14.88720703 C6.2937476 17.95136893 6.26288421 20.99880834 6.1875 24.0625 C6.17396484 25.11888672 6.16042969 26.17527344 6.14648438 27.26367188 C6.1114709 29.84299809 6.06236675 32.42121494 6 35 C5.67 35 5.34 35 5 35 C4.91959473 34.40574219 4.83918945 33.81148438 4.75634766 33.19921875 C4.38380937 30.46549987 4.00444973 27.73276777 3.625 25 C3.49867188 24.06542969 3.37234375 23.13085938 3.2421875 22.16796875 C2.64448231 17.89437663 1.99154583 13.7106501 0.90625 9.53125 C0.04693044 6.1828669 -0.17178629 3.43572584 0 0 Z " fill="#3BC096" transform="translate(770,357)"/>
<path d="M0 0 C3.29714793 0.32971479 4.6226839 0.6226839 7 3 C7 4.65 7 6.3 7 8 C0.565 8.495 0.565 8.495 -6 9 C-2.25 2.25 -2.25 2.25 0 0 Z " fill="#52B746" transform="translate(462,294)"/>
<path d="M0 0 C0.66 0.33 1.32 0.66 2 1 C-3.13505295 4.8239756 -8.35825511 7.98644501 -14 11 C-15.36995402 11.74840081 -16.73973013 12.49712732 -18.109375 13.24609375 C-19.61424999 14.06051208 -21.11946173 14.87430847 -22.625 15.6875 C-23.34155762 16.0803418 -24.05811523 16.47318359 -24.79638672 16.87792969 C-29.13976459 19.20334436 -33.21218781 20.82503822 -38 22 C-38 21.34 -38 20.68 -38 20 C-37.45287354 19.74943848 -36.90574707 19.49887695 -36.34204102 19.24072266 C-25.62460026 14.30557452 -15.16533359 9.23352605 -5.15649414 2.96142578 C-3.4700136 1.9199778 -1.7387099 0.95169238 0 0 Z " fill="#3AB89D" transform="translate(679,562)"/>
<path d="M0 0 C2.31465281 3.47197921 2.25699485 4.8562709 2.265625 8.953125 C2.26949219 10.71849609 2.26949219 10.71849609 2.2734375 12.51953125 C2.26570312 13.75058594 2.25796875 14.98164063 2.25 16.25 C2.25773438 17.46558594 2.26546875 18.68117188 2.2734375 19.93359375 C2.26023011 25.98918152 2.12462107 31.30061968 0 37 C-0.33 37 -0.66 37 -1 37 C-1.17327227 24.63991137 -0.63594729 12.34177486 0 0 Z " fill="#40C09E" transform="translate(775,393)"/>
<path d="M0 0 C2 0 2 0 4.25 2.125 C6 5 6 5 5.4375 8.1875 C4 11 4 11 1 13 C-1 11 -1 11 -1.23046875 8.65234375 C-1.21628906 7.75644531 -1.20210938 6.86054688 -1.1875 5.9375 C-1.18105469 5.03902344 -1.17460937 4.14054687 -1.16796875 3.21484375 C-1 1 -1 1 0 0 Z " fill="#71CE8D" transform="translate(418,339)"/>
<path d="M0 0 C2.25245881 2.68841859 3.88213958 4.64641875 5 8 C4.67 8.66 4.34 9.32 4 10 C3.79988848 13.75394384 3.65429287 17.50164417 3.5703125 21.25976562 C3.3834239 26.01374447 2.9306155 29.06815177 0 33 C-0.556875 33.928125 -1.11375 34.85625 -1.6875 35.8125 C-2.120625 36.534375 -2.55375 37.25625 -3 38 C-3.33 37.34 -3.66 36.68 -4 36 C-3.23827159 33.93885254 -2.41387466 31.90076411 -1.5625 29.875 C2.24857797 20.10670023 1.93104864 10.25671736 0 0 Z " fill="#22B79B" transform="translate(612,729)"/>
<path d="M0 0 C6.93 0.495 6.93 0.495 14 1 C14.1953125 10.9609375 14.1953125 10.9609375 14 14 C13.34 14.66 12.68 15.32 12 16 C12 11.71 12 7.42 12 3 C10.205625 2.87625 8.41125 2.7525 6.5625 2.625 C3.50390625 2.4140625 3.50390625 2.4140625 1 2 C0.67 1.34 0.34 0.68 0 0 Z " fill="#3AB695" transform="translate(432,711)"/>
<path d="M0 0 C2.97 0 5.94 0 9 0 C9 0.66 9 1.32 9 2 C10.32 1.34 11.64 0.68 13 0 C13 0.99 13 1.98 13 3 C11.25364835 3.53293835 9.50272348 4.05090663 7.75 4.5625 C6.77546875 4.85253906 5.8009375 5.14257812 4.796875 5.44140625 C2.03756068 5.99249836 0.6087176 5.93789609 -2 5 C1.465 4.505 1.465 4.505 5 4 C5 3.34 5 2.68 5 2 C3.02 2 1.04 2 -1 2 C-0.67 1.34 -0.34 0.68 0 0 Z " fill="#2EAF8D" transform="translate(505,554)"/>
<path d="M0 0 C-0.33 0.99 -0.66 1.98 -1 3 C-5.4378561 4.11165232 -9.76956386 4.11527763 -14.3125 4.0625 C-15.05306641 4.05798828 -15.79363281 4.05347656 -16.55664062 4.04882812 C-18.37112899 4.03712175 -20.18557534 4.01918898 -22 4 C-22 3.67 -22 3.34 -22 3 C-19.27172635 2.49465273 -16.54255306 1.99556155 -13.8125 1.5 C-13.04357422 1.35691406 -12.27464844 1.21382812 -11.48242188 1.06640625 C-7.60578227 0.36761285 -3.958529 -0.19039017 0 0 Z " fill="#D0F0E3" transform="translate(498,553)"/>
<path d="M0 0 C6.6 0 13.2 0 20 0 C20 0.33 20 0.66 20 1 C12.08 1.495 12.08 1.495 4 2 C2.7922442 5.62326739 3.45688872 6.64146369 5 10 C4.34 10 3.68 10 3 10 C0 3.375 0 3.375 0 0 Z " fill="#9AD56C" transform="translate(308,459)"/>
<path d="M0 0 C1.60332791 -0.08121924 3.20784026 -0.13929134 4.8125 -0.1875 C6.15248047 -0.23970703 6.15248047 -0.23970703 7.51953125 -0.29296875 C10 0 10 0 11.82421875 1.38671875 C13 3 13 3 13 5 C8.13103697 4.40380045 3.67209049 3.43023178 -1 2 C-0.67 1.34 -0.34 0.68 0 0 Z " fill="#8ADD95" transform="translate(367,373)"/>
<path d="M0 0 C0 0.99 0 1.98 0 3 C-5.07476794 4.26305335 -9.72796354 5.27036084 -15 5 C-12.62383533 2.62383533 -10.64650479 1.95931819 -7.5 0.8125 C-6.5203125 0.44769531 -5.540625 0.08289063 -4.53125 -0.29296875 C-2 -1 -2 -1 0 0 Z " fill="#2ABC9F" transform="translate(562,814)"/>
<path d="M0 0 C0.66 0.33 1.32 0.66 2 1 C-4.0572146 5.52096452 -9.64155399 8.24872057 -17 10 C-14.27068207 6.73690403 -10.67833428 5.09948674 -6.9375 3.25 C-6.30005859 2.92128906 -5.66261719 2.59257813 -5.00585938 2.25390625 C-3.36875018 1.43621419 -1.68639678 0.71050174 0 0 Z " fill="#2EC0A1" transform="translate(580,793)"/>
<path d="M0 0 C-2.06049855 0.81756238 -4.12348853 1.62884734 -6.1875 2.4375 C-7.91033203 3.11619141 -7.91033203 3.11619141 -9.66796875 3.80859375 C-12.47123233 4.81093301 -15.07112576 5.52012795 -18 6 C-15.54403107 3.12229903 -13.09110405 2.03312874 -9.5625 0.75 C-8.61503906 0.39421875 -7.66757812 0.0384375 -6.69140625 -0.328125 C-3.94125929 -1.01466386 -2.61996705 -0.96622898 0 0 Z " fill="#3BB89D" transform="translate(618,594)"/>
<path d="M0 0 C0.66386719 0.14179688 1.32773437 0.28359375 2.01171875 0.4296875 C2.01171875 0.7596875 2.01171875 1.0896875 2.01171875 1.4296875 C1.4084375 1.45546875 0.80515625 1.48125 0.18359375 1.5078125 C-5.09363464 1.83300733 -5.09363464 1.83300733 -9.55078125 4.4921875 C-10.02515625 5.1315625 -10.49953125 5.7709375 -10.98828125 6.4296875 C-11.64828125 6.0996875 -12.30828125 5.7696875 -12.98828125 5.4296875 C-9.2470591 -0.68097534 -6.98838649 -1.16303074 0 0 Z " fill="#59C186" transform="translate(443.98828125,352.5703125)"/>
<path d="M0 0 C-1.13819851 3.41459553 -2.24005518 4.3324158 -4.9375 6.625 C-5.64777344 7.23601562 -6.35804688 7.84703125 -7.08984375 8.4765625 C-9 10 -9 10 -11 11 C-9.60249952 7.84164893 -7.94801766 5.67727175 -5.5 3.25 C-4.8915625 2.63640625 -4.283125 2.0228125 -3.65625 1.390625 C-2 0 -2 0 0 0 Z " fill="#5BC58E" transform="translate(544,316)"/>
<path d="M0 0 C-2.46153846 4.8 -2.46153846 4.8 -5.1875 5.8125 C-5.785625 5.874375 -6.38375 5.93625 -7 6 C-7 5.34 -7 4.68 -7 4 C-6.01 4 -5.02 4 -4 4 C-5.32 3.01 -6.64 2.02 -8 1 C-5.07175348 0.02391783 -3.04386724 -0.08226668 0 0 Z " fill="#3DB69B" transform="translate(540,547)"/>
<path d="M0 0 C0.66 0 1.32 0 2 0 C2.39253254 4.44870215 1.15305957 7.14243493 -1 11 C-2.60080151 6.99799622 -1.29279692 3.95443764 0 0 Z " fill="#54C392" transform="translate(643,433)"/>
<path d="M0 0 C0.33 0.99 0.66 1.98 1 3 C-0.43359375 5.04296875 -0.43359375 5.04296875 -2.4375 7.1875 C-3.09621094 7.90292969 -3.75492188 8.61835938 -4.43359375 9.35546875 C-4.95050781 9.89816406 -5.46742188 10.44085938 -6 11 C-6 7.39426104 -5.18292538 6.58663434 -3 3.8125 C-2.443125 3.09707031 -1.88625 2.38164062 -1.3125 1.64453125 C-0.879375 1.10183594 -0.44625 0.55914062 0 0 Z " fill="#3AB79F" transform="translate(746,499)"/>
<path d="M0 0 C0.33 0 0.66 0 1 0 C1 1.65 1 3.3 1 5 C-5.435 5.495 -5.435 5.495 -12 6 C-11.67 5.01 -11.34 4.02 -11 3 C-7.37 3.33 -3.74 3.66 0 4 C0 2.68 0 1.36 0 0 Z " fill="#44B04D" transform="translate(468,297)"/>
<path d="M0 0 C0.66 0.33 1.32 0.66 2 1 C2 1.99 2 2.98 2 4 C-0.64 4.33 -3.28 4.66 -6 5 C-2.25 1.125 -2.25 1.125 0 0 Z " fill="#E5F7F1" transform="translate(545,804)"/>
<path d="M0 0 C0.66 0.66 1.32 1.32 2 2 C1.64700993 5.44165321 0.95418308 7.06872538 -1 10 C-2.31223496 6.06329512 -1.24296256 3.87511856 0 0 Z " fill="#E1E8E5" transform="translate(767,447)"/>
<path d="M0 0 C0.99 1.32 1.98 2.64 3 4 C2.1875 7.75 2.1875 7.75 1 11 C0.67 11 0.34 11 0 11 C0 7.37 0 3.74 0 0 Z " fill="#85D897" transform="translate(416,333)"/>
<path d="M0 0 C0.99 0.33 1.98 0.66 3 1 C0.03 3.475 0.03 3.475 -3 6 C-3.66 5.34 -4.32 4.68 -5 4 C-2.6875 1.9375 -2.6875 1.9375 0 0 Z " fill="#54C28B" transform="translate(525,330)"/>
<path d="M0 0 C0.99 0.495 0.99 0.495 2 1 C2.4140625 3.06640625 2.4140625 3.06640625 2.625 5.5625 C2.69976563 6.38878906 2.77453125 7.21507812 2.8515625 8.06640625 C2.92503906 9.02353516 2.92503906 9.02353516 3 10 C2.01 10.66 1.02 11.32 0 12 C0 8.04 0 4.08 0 0 Z " fill="#29C598" transform="translate(530,765)"/>
<path d="M0 0 C1.32 0.33 2.64 0.66 4 1 C3.67 1.99 3.34 2.98 3 4 C3.87914688 6.6569191 3.87914688 6.6569191 5 9 C4.34 9 3.68 9 3 9 C2.01 6.03 1.02 3.06 0 0 Z " fill="#90D057" transform="translate(308,460)"/>
<path d="M0 0 C2 2 2 2 2.125 4.625 C2.08375 5.40875 2.0425 6.1925 2 7 C1.01 7 0.02 7 -1 7 C-1.04254356 5.00045254 -1.04080783 2.99958364 -1 1 C-0.67 0.67 -0.34 0.34 0 0 Z " fill="#EEEDEE" transform="translate(771,396)"/>
</g>
</svg>
